<svg width="16" height="16" viewBox="0 0 16 16" fill="none" xmlns="http://www.w3.org/2000/svg">
<g id="ant-design:google-plus-circle-filled">
<path id="Vector" d="M8 1C4.13438 1 1 4.13438 1 8C1 11.8656 4.13438 15 8 15C11.8656 15 15 11.8656 15 8C15 4.13438 11.8656 1 8 1ZM8.57031 9.73125C7.88438 10.6969 6.50625 10.9781 5.43125 10.5641C4.35313 10.1531 3.5875 9.01406 3.67969 7.85313C3.70312 6.43281 5.01094 5.1875 6.43125 5.23594C7.1125 5.20469 7.75312 5.5 8.275 5.91719C8.05156 6.17031 7.82187 6.41406 7.575 6.64062C6.94844 6.20781 6.05625 6.08437 5.42969 6.58437C4.53281 7.20469 4.49219 8.66875 5.35469 9.33594C6.19375 10.0969 7.77969 9.71875 8.0125 8.55313C7.4875 8.54531 6.95937 8.55312 6.43437 8.53594C6.43281 8.22187 6.43125 7.90938 6.43281 7.59531C7.31094 7.59219 8.19063 7.59062 9.07031 7.59844C9.12187 8.3375 9.02344 9.12187 8.57031 9.73125ZM12.3594 8.38281C12.0969 8.38594 11.8344 8.3875 11.5719 8.38906C11.5687 8.65156 11.5672 8.91406 11.5672 9.17656H10.7812C10.7781 8.91406 10.7781 8.65312 10.7766 8.39062C10.5141 8.3875 10.2516 8.38594 9.98906 8.38281V7.6C10.2516 7.59687 10.5141 7.59531 10.7766 7.59531C10.7781 7.33281 10.7812 7.07031 10.7828 6.80781H11.5672L11.5719 7.59531C11.8344 7.59844 12.0969 7.59844 12.3594 7.6V8.38281Z" fill="white"/>
</g>
</svg>
