<svg width="16" height="16" viewBox="0 0 16 16" fill="none" xmlns="http://www.w3.org/2000/svg">
<g id="entypo-social:linkedin-with-circle" clip-path="url(#clip0_547_841)">
<path id="Vector" d="M8.00007 0.319946C3.75847 0.319946 0.320068 3.75835 0.320068 7.99995C0.320068 12.2415 3.75847 15.6799 8.00007 15.6799C12.2417 15.6799 15.6801 12.2415 15.6801 7.99995C15.6801 3.75835 12.2417 0.319946 8.00007 0.319946ZM6.12007 11.1831H4.56487V6.17835H6.12007V11.1831ZM5.33287 5.56395C4.84167 5.56395 4.52407 5.21595 4.52407 4.78555C4.52407 4.34635 4.85127 4.00875 5.35287 4.00875C5.85447 4.00875 6.16167 4.34635 6.17127 4.78555C6.17127 5.21595 5.85447 5.56395 5.33287 5.56395ZM11.8001 11.1831H10.2449V8.40955C10.2449 7.76395 10.0193 7.32555 9.45687 7.32555C9.02727 7.32555 8.77207 7.62235 8.65927 7.90795C8.61767 8.00955 8.60727 8.15355 8.60727 8.29675V11.1823H7.05127V7.77435C7.05127 7.14955 7.03127 6.62715 7.01047 6.17755H8.36167L8.43287 6.87275H8.46407C8.66887 6.54635 9.17047 6.06475 10.0097 6.06475C11.0329 6.06475 11.8001 6.75035 11.8001 8.22395V11.1831Z" fill="white"/>
</g>
<defs>
<clipPath id="clip0_547_841">
<rect width="16" height="16" fill="white"/>
</clipPath>
</defs>
</svg>
